# xmcd
# 
# Track frame offsets:
#     150
#     16267
#     32392
#     70855
# 
# Disc length: 1359
# 
# Revision: 0
# Processed by: cddbd v1.5.2PL0 Copyright (c) Steve Scherf et al.
# Submitted via: BonkEnc v1.0.8
# 
DISCID=24054d04
DTITLE=Dudearello Feat. Shelley Nelson - Top Of The World
DYEAR=1996
DGENRE=Dance
TTITLE0=Top Of The World (Mover's 'N' Shaker's Edit)
TTITLE1=Top Of The World (The Dudes Edit)
TTITLE2=Top Of The World (Original Mix)
TTITLE3=Harmonious
EXTD=
EXTT0=
EXTT1=
EXTT2=
EXTT3=
PLAYORDER=
